<svg width="21" height="22" viewBox="0 0 21 22" fill="none" xmlns="http://www.w3.org/2000/svg">
<path d="M20.0546 17.025L10.4598 21.8014C10.3467 21.85 10.2248 21.875 10.1017 21.875C9.97855 21.875 9.85669 21.85 9.74353 21.8014L0.148315 17.025C-0.0469971 16.9274 -0.0469971 16.7672 0.148315 16.6691L2.44617 15.5275C2.5595 15.4789 2.68151 15.4539 2.80481 15.4539C2.92811 15.4539 3.05012 15.4789 3.16345 15.5275L9.74353 18.799C9.85663 18.8478 9.97851 18.8729 10.1017 18.8729C10.2249 18.8729 10.3467 18.8478 10.4598 18.799L17.0399 15.5275C17.1532 15.4789 17.2751 15.4539 17.3983 15.4539C17.5215 15.4539 17.6435 15.4789 17.7567 15.5275L20.0546 16.6715C20.2523 16.7672 20.2523 16.9274 20.0546 17.025ZM20.0546 10.3585L17.7567 9.21449C17.6435 9.16591 17.5215 9.14086 17.3983 9.14086C17.2751 9.14086 17.1532 9.16591 17.0399 9.21449L10.4598 12.4899C10.3466 12.5382 10.2248 12.5631 10.1017 12.5631C9.97858 12.5631 9.85675 12.5382 9.74353 12.4899L3.16345 9.21449C3.05012 9.16593 2.92811 9.14089 2.80481 9.14089C2.68151 9.14089 2.5595 9.16593 2.44617 9.21449L0.148315 10.3585C-0.0469971 10.4562 -0.0469971 10.6168 0.148315 10.7155L9.74353 15.4909C9.85669 15.5394 9.97855 15.5645 10.1017 15.5645C10.2248 15.5645 10.3467 15.5394 10.4598 15.4909L20.0546 10.7155C20.2523 10.6168 20.2523 10.4567 20.0546 10.3585ZM0.148315 4.80579L9.74304 9.21449C9.97327 9.30483 10.2291 9.30483 10.4594 9.21449L20.0546 4.80579C20.2499 4.71497 20.2499 4.56702 20.0546 4.47669L10.4594 0.0684891C10.2293 -0.0228297 9.97308 -0.0228297 9.74304 0.0684891L0.148315 4.47669C-0.0494385 4.56702 -0.0494385 4.71497 0.148315 4.80579Z" fill="#A5A5A5"/>
</svg>
